<?xml version="1.0" encoding="UTF-8"?>
<svg id="Layer_1" data-name="Layer 1" xmlns="http://www.w3.org/2000/svg" viewBox="0 0 256 256">
  <defs>
    <style>
      .cls-1 {
        fill: #fff;
      }
    </style>
  </defs>
  <g>
    <circle class="cls-1" cx="128" cy="128" r="118"/>
    <path d="m128,20c28.848,0,55.969,11.234,76.367,31.633s31.633,47.52,31.633,76.367-11.234,55.969-31.633,76.367-47.52,31.633-76.367,31.633-55.969-11.234-76.367-31.633-31.633-47.52-31.633-76.367,11.234-55.969,31.633-76.367,47.52-31.633,76.367-31.633m0-20C57.308,0,0,57.308,0,128s57.308,128,128,128,128-57.308,128-128S198.692,0,128,0h0Z"/>
  </g>
  <g>
    <path d="m118,245.58c-60.403-5.092-108-55.882-108-117.58S57.597,15.512,118,10.42v235.16Z"/>
    <path d="m108,21.837v212.326c-21.231-3.954-40.766-14.194-56.367-29.796-20.398-20.398-31.633-47.52-31.633-76.367s11.234-55.969,31.633-76.367c15.601-15.601,35.136-25.842,56.367-29.796M128,0C57.308,0,0,57.308,0,128s57.308,128,128,128V0h0Z"/>
  </g>
</svg>