<?xml version="1.0" encoding="UTF-8"?>
<svg id="a" data-name="Layer 1" xmlns="http://www.w3.org/2000/svg" viewBox="0 0 335 185">
  <defs>
    <style>
      .b {
        fill: none;
        stroke: #000;
        stroke-linejoin: round;
        stroke-width: 35px;
      }
    </style>
  </defs>
  <path class="b" d="m317.5,92.5s-67.157,75-150,75S17.5,92.5,17.5,92.5c0,0,67.157-75,150-75s150,75,150,75Z"/>
  <path d="m167.5,52.5c-22.091,0-40,17.909-40,40s17.909,40,40,40,40-17.909,40-40-17.909-40-40-40Zm20.364,30.545c-5.623,0-10.182-4.559-10.182-10.182s4.559-10.182,10.182-10.182,10.182,4.559,10.182,10.182-4.559,10.182-10.182,10.182Z"/>
  <path d="m167.5,37.5c30.327,0,55,24.673,55,55s-24.673,55-55,55-55-24.673-55-55,24.673-55,55-55m0-25c-44.183,0-80,35.817-80,80s35.817,80,80,80,80-35.817,80-80S211.683,12.5,167.5,12.5h0Z"/>
</svg>