<?xml version="1.0" encoding="UTF-8"?>
<svg id="Layer_1" data-name="Layer 1" xmlns="http://www.w3.org/2000/svg" viewBox="0 0 256 256">
  <defs>
    <style>
      .cls-1 {
        fill: #ffff64;
      }
    </style>
  </defs>
  <g>
    <circle class="cls-1" cx="128" cy="128" r="118"/>
    <path d="m128,20c28.848,0,55.969,11.234,76.367,31.633s31.633,47.52,31.633,76.367-11.234,55.969-31.633,76.367-47.52,31.633-76.367,31.633-55.969-11.234-76.367-31.633-31.633-47.52-31.633-76.367,11.234-55.969,31.633-76.367,47.52-31.633,76.367-31.633m0-20C57.308,0,0,57.308,0,128s57.308,128,128,128,128-57.308,128-128S198.692,0,128,0h0Z"/>
  </g>
  <path d="m96,185c3.308,0,6,2.692,6,6s-2.692,6-6,6-6-2.692-6-6,2.692-6,6-6m0-4c-5.523,0-10,4.477-10,10s4.477,10,10,10,10-4.477,10-10-4.477-10-10-10h0Z"/>
  <g>
    <circle cx="65" cy="120" r="26.5"/>
    <path d="m65,97c12.682,0,23,10.318,23,23s-10.318,23-23,23-23-10.318-23-23,10.318-23,23-23m0-7c-16.569,0-30,13.431-30,30s13.431,30,30,30,30-13.431,30-30-13.431-30-30-30h0Z"/>
  </g>
  <g>
    <circle cx="128" cy="71" r="36"/>
    <path d="m128,40c17.093,0,31,13.907,31,31s-13.907,31-31,31-31-13.907-31-31,13.907-31,31-31m0-10c-22.644,0-41,18.356-41,41s18.356,41,41,41,41-18.356,41-41-18.356-41-41-41h0Z"/>
  </g>
  <g>
    <circle cx="170.5" cy="151.5" r="22.5"/>
    <path d="m170.5,133c10.201,0,18.5,8.299,18.5,18.5s-8.299,18.5-18.5,18.5-18.5-8.299-18.5-18.5,8.299-18.5,18.5-18.5m0-8c-14.636,0-26.5,11.864-26.5,26.5s11.864,26.5,26.5,26.5,26.5-11.864,26.5-26.5-11.864-26.5-26.5-26.5h0Z"/>
  </g>
  <g>
    <circle cx="212.5" cy="133.5" r="9"/>
    <path d="m212.5,127c3.584,0,6.5,2.916,6.5,6.5s-2.916,6.5-6.5,6.5-6.5-2.916-6.5-6.5,2.916-6.5,6.5-6.5m0-5c-6.351,0-11.5,5.149-11.5,11.5s5.149,11.5,11.5,11.5,11.5-5.149,11.5-11.5-5.149-11.5-11.5-11.5h0Z"/>
  </g>
</svg>