<?xml version="1.0" encoding="UTF-8"?>
<svg id="Layer_1" data-name="Layer 1" xmlns="http://www.w3.org/2000/svg" viewBox="0 0 255.081 254.646">
  <defs>
    <style>
      .cls-1 {
        fill: #ff0;
      }
    </style>
  </defs>
  <path class="cls-1" d="m141.379,245.984c-2.9,0-5.641-1.459-7.252-3.929l-6.587-10.097-6.587,10.097c-1.612,2.47-4.352,3.929-7.252,3.929-.361,0-.724-.022-1.087-.068-3.29-.415-6.054-2.673-7.118-5.813l-3.869-11.417-8.891,8.141c-1.625,1.489-3.722,2.273-5.851,2.274-1.073,0-2.154-.2-3.187-.609-3.083-1.22-5.199-4.094-5.448-7.4l-.908-12.021-10.636,5.674c-1.28.683-2.681,1.02-4.076,1.02-1.796,0-3.583-.558-5.092-1.654-2.683-1.948-4.017-5.258-3.437-8.522l2.11-11.87-11.714,2.852c-.68.165-1.367.246-2.048.246-2.546,0-5.006-1.125-6.674-3.142-2.113-2.555-2.583-6.092-1.209-9.109l4.996-10.972-12.055-.151c-3.315-.042-6.316-1.973-7.728-4.974-1.412-3-.987-6.543,1.094-9.124l7.567-9.385-11.638-3.145c-3.201-.864-5.627-3.481-6.249-6.738-.622-3.257.671-6.583,3.329-8.565l9.664-7.209-10.49-5.939c-2.885-1.634-4.585-4.771-4.377-8.081.208-3.309,2.288-6.209,5.355-7.468l11.152-4.579-8.684-8.362c-2.389-2.3-3.254-5.762-2.229-8.916,1.024-3.154,3.76-5.446,7.044-5.902l11.94-1.662-6.331-10.259c-1.742-2.822-1.719-6.39.058-9.19,1.6-2.521,4.37-4.021,7.311-4.021.325,0,.652.019.979.056l11.979,1.36-3.581-11.511c-.985-3.166-.076-6.617,2.341-8.887,1.634-1.535,3.765-2.348,5.931-2.348,1.037,0,2.083.187,3.085.569l11.264,4.297-.606-12.041c-.167-3.312,1.572-6.428,4.478-8.025,1.304-.717,2.74-1.072,4.172-1.072,1.759,0,3.511.535,5.003,1.591l9.842,6.963,2.407-11.812c.662-3.249,3.121-5.835,6.333-6.66.714-.184,1.438-.272,2.154-.272,2.507,0,4.935,1.091,6.604,3.057l7.801,9.191,5.27-10.843c1.449-2.982,4.474-4.875,7.79-4.875s6.341,1.893,7.79,4.875l5.27,10.843,7.801-9.191c1.668-1.966,4.096-3.057,6.604-3.057.717,0,1.439.089,2.154.272,3.211.824,5.67,3.41,6.333,6.659l2.407,11.813,9.842-6.963c1.492-1.056,3.245-1.591,5.004-1.591,1.432,0,2.868.354,4.172,1.072,2.905,1.597,4.645,4.713,4.478,8.025l-.605,12.04,11.264-4.297c1.003-.382,2.049-.569,3.086-.569,2.166,0,4.296.813,5.931,2.348,2.417,2.27,3.326,5.721,2.341,8.887l-3.581,11.511,11.979-1.36c.328-.037.654-.056.979-.056,2.941,0,5.711,1.5,7.312,4.021,1.776,2.8,1.799,6.368.058,9.19l-6.331,10.259,11.939,1.662c3.284.457,6.02,2.749,7.044,5.902,1.024,3.153.159,6.615-2.229,8.916l-8.684,8.362,11.152,4.578c3.067,1.259,5.147,4.16,5.355,7.469.208,3.31-1.491,6.447-4.377,8.081l-10.49,5.939,9.663,7.209c2.658,1.982,3.95,5.309,3.329,8.565s-3.048,5.874-6.249,6.738l-11.638,3.145,7.566,9.385c2.082,2.581,2.507,6.124,1.095,9.124-1.412,3.001-4.412,4.932-7.729,4.974l-12.054.151,4.995,10.972c1.374,3.018.904,6.555-1.209,9.109-1.667,2.016-4.128,3.142-6.674,3.142-.681,0-1.368-.081-2.048-.246l-11.714-2.852,2.109,11.87c.581,3.265-.754,6.574-3.437,8.522-1.509,1.097-3.296,1.654-5.092,1.654-1.396,0-2.797-.337-4.076-1.02l-10.636-5.674-.908,12.021c-.25,3.307-2.365,6.181-5.448,7.4-1.033.409-2.114.608-3.187.609-2.129,0-4.226-.785-5.852-2.274l-8.891-8.142-3.87,11.419c-1.064,3.14-3.828,5.397-7.118,5.812-.363.046-.727.068-1.087.068Z"/>
  <path d="m127.54,17.323l11.073,22.784,16.391-19.314,5.059,24.822,20.679-14.631-1.273,25.3,23.668-9.029-7.525,24.189,25.17-2.859-13.304,21.557,25.09,3.49-18.247,17.572,23.434,9.62-22.044,12.482,20.305,15.146-24.455,6.608,15.901,19.72-25.33.318,10.497,23.055-24.613-5.991,4.434,24.941-22.35-11.924-1.908,25.26-18.683-17.107-8.13,23.992-13.841-21.216-13.841,21.216-8.13-23.992-18.683,17.107-1.908-25.26-22.35,11.924,4.434-24.941-24.613,5.991,10.497-23.055-25.33-.318,15.901-19.72-24.455-6.608,20.305-15.146-22.044-12.482,23.434-9.62-18.247-17.572,25.09-3.49-13.304-21.557,25.17,2.859-7.525-24.189,23.668,9.029-1.273-25.3,20.679,14.631,5.059-24.822,16.391,19.314,11.073-22.784m0-17.323c-6.242,0-11.969,3.355-15.038,8.723-3.29-3.389-7.79-5.254-12.427-5.254-1.433,0-2.88.178-4.308.545-6.046,1.552-10.759,6.226-12.396,12.189-2.76-1.688-5.893-2.542-9.036-2.542-2.864,0-5.736.709-8.344,2.143-5.47,3.007-8.872,8.706-8.975,14.889-1.664-.51-3.375-.76-5.072-.76-4.332,0-8.592,1.625-11.861,4.695-4.551,4.273-6.429,10.639-4.991,16.653-.267-.012-.534-.019-.8-.019-5.883,0-11.422,2.999-14.622,8.041-3.345,5.271-3.581,11.903-.692,17.371-6.054,1.259-11.014,5.669-12.943,11.606-1.929,5.937-.508,12.42,3.649,16.997C4.134,108.001.426,113.506.034,119.736c-.392,6.23,2.597,12.156,7.762,15.556-4.698,4.02-6.921,10.274-5.751,16.406,1.17,6.132,5.538,11.128,11.386,13.137-3.551,5.062-4.148,11.672-1.49,17.321,2.658,5.648,8.132,9.402,14.296,9.892-2.18,5.786-1.115,12.337,2.864,17.147,3.335,4.031,8.255,6.281,13.348,6.281.983,0,1.973-.084,2.959-.255-.673,6.147,1.988,12.227,7.038,15.896,3.019,2.193,6.593,3.308,10.184,3.308,2.417,0,4.841-.505,7.109-1.527.877,6.121,4.966,11.348,10.77,13.646,2.066.818,4.229,1.217,6.374,1.217,3.881,0,7.709-1.305,10.819-3.792,2.372,5.711,7.633,9.757,13.826,10.539.727.092,1.454.137,2.175.137,5.419,0,10.557-2.545,13.837-6.907,3.28,4.361,8.419,6.907,13.837,6.907.721,0,1.447-.045,2.175-.137,6.193-.782,11.454-4.828,13.826-10.539,3.11,2.487,6.938,3.792,10.819,3.792,2.146,0,4.307-.399,6.374-1.217,5.804-2.298,9.894-7.525,10.77-13.646,2.268,1.021,4.693,1.527,7.109,1.527,3.591,0,7.165-1.115,10.184-3.308,5.05-3.669,7.711-9.749,7.038-15.896.986.171,1.976.255,2.959.255,5.093,0,10.012-2.25,13.348-6.281,3.979-4.81,5.044-11.361,2.864-17.147,6.164-.491,11.638-4.244,14.296-9.892,2.658-5.648,2.061-12.258-1.49-17.321,5.848-2.008,10.217-7.005,11.386-13.137,1.17-6.132-1.053-12.386-5.751-16.406,5.165-3.4,8.154-9.326,7.762-15.556-.392-6.23-4.1-11.735-9.65-14.46,4.157-4.577,5.578-11.06,3.649-16.997-1.929-5.937-6.889-10.347-12.943-11.606,2.888-5.467,2.652-12.1-.692-17.371-3.2-5.042-8.74-8.041-14.622-8.041-.266,0-.533.006-.8.018,1.438-6.014-.44-12.38-4.991-16.653-3.269-3.07-7.529-4.695-11.861-4.695-1.698,0-3.407.25-5.072.76-.103-6.183-3.505-11.881-8.975-14.889-2.608-1.434-5.48-2.143-8.344-2.143-3.143,0-6.276.854-9.036,2.542-1.637-5.963-6.35-10.636-12.396-12.189-1.427-.366-2.874-.545-4.308-.545-4.637,0-9.137,1.865-12.427,5.254-3.069-5.368-8.795-8.723-15.038-8.723h0Z"/>
</svg>