<?xml version="1.0" encoding="UTF-8"?>
<svg id="Layer_1" data-name="Layer 1" xmlns="http://www.w3.org/2000/svg" viewBox="0 0 341 330.673">
  <defs>
    <style>
      .cls-1 {
        fill: #ff0;
        stroke: #ffe100;
        stroke-width: 10px;
      }

      .cls-1, .cls-2 {
        stroke-linejoin: round;
      }

      .cls-2 {
        fill: none;
        stroke: #f0f0ff;
        stroke-width: 130px;
      }
    </style>
  </defs>
  <polygon class="cls-2" points="170.5 80.936 203.101 65 220.109 97.055 255.851 103.325 250.769 139.255 276 165.336 250.769 191.417 255.851 227.348 220.109 233.617 203.101 265.673 170.5 249.736 137.899 265.673 120.891 233.617 85.149 227.348 90.231 191.417 65 165.336 90.231 139.255 85.149 103.325 120.891 97.055 137.899 65 170.5 80.936"/>
  <polygon class="cls-1" points="170.5 86.668 191.011 35.836 194.81 90.518 230.025 48.513 216.74 101.692 263.212 72.625 234.144 119.096 287.324 105.812 245.318 141.027 300 144.826 249.169 165.336 300 185.847 245.318 189.646 287.324 224.861 234.144 211.577 263.212 258.048 216.74 228.981 230.025 282.16 194.81 240.155 191.011 294.836 170.5 244.005 149.989 294.836 146.19 240.155 110.975 282.16 124.26 228.981 77.788 258.048 106.856 211.577 53.676 224.861 95.682 189.646 41 185.847 91.831 165.336 41 144.826 95.682 141.027 53.676 105.812 106.856 119.096 77.788 72.625 124.26 101.692 110.975 48.513 146.19 90.518 149.989 35.836 170.5 86.668"/>
</svg>