<?xml version="1.0" encoding="UTF-8"?>
<svg id="Layer_1" data-name="Layer 1" xmlns="http://www.w3.org/2000/svg" viewBox="0 0 99.031 94.478">
  <defs>
    <style>
      .cls-1, .cls-2, .cls-3 {
        fill: #fff;
      }

      .cls-2 {
        stroke-width: 2.427px;
      }

      .cls-2, .cls-3 {
        stroke: #000;
        stroke-miterlimit: 10;
      }

      .cls-3 {
        stroke-width: 3.675px;
      }
    </style>
  </defs>
  <g>
    <path d="m78.264,92.977c-.239,0-.479-.057-.698-.172l-28.05-14.747-28.05,14.747c-.22.115-.459.172-.698.172-.311,0-.62-.097-.882-.286-.462-.336-.693-.904-.597-1.468l5.357-31.233L1.953,37.87c-.409-.398-.556-.995-.38-1.538.177-.543.646-.938,1.211-1.021l31.361-4.558L48.17,2.335c.253-.512.774-.836,1.345-.836s1.093.324,1.345.836l14.025,28.418,31.361,4.558c.564.082,1.034.478,1.211,1.021.176.543.029,1.14-.38,1.538l-22.693,22.12,5.357,31.233c.097.563-.135,1.132-.597,1.468-.262.189-.571.286-.882.286Z"/>
    <path class="cls-1" d="m49.515,3l14.374,29.125,32.141,4.67-23.258,22.671,5.49,32.012-28.748-15.114-28.748,15.114,5.49-32.012L3,36.795l32.141-4.67L49.515,3m0-3c-1.142,0-2.185.648-2.69,1.672l-13.676,27.711-30.581,4.444c-1.13.164-2.069.956-2.422,2.042-.353,1.086-.059,2.278.759,3.075l22.128,21.57-5.224,30.457c-.193,1.125.27,2.263,1.193,2.934.523.38,1.142.573,1.764.573.477,0,.957-.114,1.396-.345l27.352-14.38,27.352,14.38c.439.231.918.345,1.396.345.622,0,1.241-.193,1.764-.573.924-.671,1.387-1.809,1.193-2.934l-5.224-30.457,22.128-21.57c.818-.797,1.112-1.989.759-3.075-.353-1.086-1.292-1.878-2.422-2.042l-30.581-4.444L52.206,1.672c-.505-1.024-1.548-1.672-2.69-1.672h0Z"/>
  </g>
  <circle class="cls-2" cx="38.777" cy="46.837" r="8.964"/>
  <path class="cls-3" d="m63.09,64.49c0,3.748-6.077,6.787-13.574,6.787s-13.574-3.039-13.574-6.787,6.077-1.275,13.574-1.275,13.574-2.474,13.574,1.275Z"/>
  <circle class="cls-2" cx="60.254" cy="46.837" r="8.964"/>
  <circle cx="39.031" cy="46.837" r="3.813"/>
  <circle cx="60" cy="46.837" r="3.813"/>
</svg>